<svg xmlns="http://www.w3.org/2000/svg" viewBox="0 0 320 320" width="320" height="320">
<g><path id="curve0" d="M17.5 17.5L36.5 17.5L36.5 36.5L17.5 36.5L17.5 55.5L17.5 74.5L36.5 74.5L36.5 55.5L55.5 55.5L55.5 74.5L74.5 74.5L74.5 55.5L74.5 36.5L55.5 36.5L55.5 17.5L74.5 17.5L93.5 17.5L93.5 36.5L112.5 36.5L112.5 17.5L131.5 17.5L150.5 17.5L150.5 36.5L131.5 36.5L131.5 55.5L150.5 55.5L150.5 74.5L131.5 74.5L112.5 74.5L112.5 55.5L93.5 55.5L93.5 74.5L93.5 93.5L93.5 112.5L112.5 112.5L112.5 93.5L131.5 93.5L150.5 93.5L150.5 112.5L131.5 112.5L131.5 131.5L150.5 131.5L150.5 150.5L131.5 150.5L112.5 150.5L112.5 131.5L93.5 131.5L93.5 150.5L74.5 150.5L55.5 150.5L55.5 131.5L74.5 131.5L74.5 112.5L74.5 93.5L55.5 93.5L55.5 112.5L36.5 112.5L36.5 93.5L17.5 93.5L17.5 112.5L17.5 131.5L36.5 131.5L36.5 150.5L17.5 150.5L17.5 169.5L17.5 188.5L36.5 188.5L36.5 169.5L55.5 169.5L74.5 169.5L74.5 188.5L55.5 188.5L55.5 207.5L74.5 207.5L74.5 226.5L55.5 226.5L36.5 226.5L36.5 207.5L17.5 207.5L17.5 226.5L17.5 245.5L36.5 245.5L36.5 264.5L17.5 264.5L17.5 283.5L17.5 302.5L36.5 302.5L36.5 283.5L55.5 283.5L55.5 302.5L74.5 302.5L74.5 283.5L74.5 264.5L55.5 264.5L55.5 245.5L74.5 245.5L93.5 245.5L112.5 245.5L112.5 264.5L93.5 264.5L93.5 283.5L93.5 302.5L112.5 302.5L112.5 283.5L131.5 283.5L131.5 302.5L150.5 302.5L150.5 283.5L150.5 264.5L131.5 264.5L131.5 245.5L150.5 245.5L150.5 226.5L150.5 207.5L131.5 207.5L131.5 226.5L112.5 226.5L93.5 226.5L93.5 207.5L112.5 207.5L112.5 188.5L93.5 188.5L93.5 169.5L112.5 169.5L131.5 169.5L131.5 188.5L150.5 188.5L150.5 169.5L169.5 169.5L169.5 188.5L188.5 188.5L188.5 169.5L207.5 169.5L226.5 169.5L226.5 188.5L207.5 188.5L207.5 207.5L226.5 207.5L226.5 226.5L207.5 226.5L188.5 226.5L188.5 207.5L169.5 207.5L169.5 226.5L169.5 245.5L188.5 245.5L188.5 264.5L169.5 264.5L169.5 283.5L169.5 302.5L188.5 302.5L188.5 283.5L207.5 283.5L207.5 302.5L226.5 302.5L226.5 283.5L226.5 264.5L207.5 264.5L207.5 245.5L226.5 245.5L245.5 245.5L264.5 245.5L264.5 264.5L245.5 264.5L245.5 283.5L245.5 302.5L264.5 302.5L264.5 283.5L283.5 283.5L283.5 302.5L302.5 302.5L302.5 283.5L302.5 264.5L283.5 264.5L283.5 245.5L302.5 245.5L302.5 226.5L302.5 207.5L283.5 207.5L283.5 226.5L264.5 226.5L245.5 226.5L245.5 207.5L264.5 207.5L264.5 188.5L245.5 188.5L245.5 169.5L264.5 169.5L283.5 169.5L283.5 188.5L302.5 188.5L302.5 169.5L302.5 150.5L283.5 150.5L283.5 131.5L302.5 131.5L302.5 112.5L302.5 93.5L283.5 93.5L283.5 112.5L264.5 112.5L264.5 93.5L245.5 93.5L245.5 112.5L245.5 131.5L264.5 131.5L264.5 150.5L245.5 150.5L226.5 150.5L226.5 131.5L207.5 131.5L207.5 150.5L188.5 150.5L169.5 150.5L169.5 131.5L188.5 131.5L188.5 112.5L169.5 112.5L169.5 93.5L188.5 93.5L207.5 93.5L207.5 112.5L226.5 112.5L226.5 93.5L226.5 74.5L226.5 55.5L207.5 55.5L207.5 74.5L188.5 74.5L169.5 74.5L169.5 55.5L188.5 55.5L188.5 36.5L169.5 36.5L169.5 17.5L188.5 17.5L207.5 17.5L207.5 36.5L226.5 36.5L226.5 17.5L245.5 17.5L264.5 17.5L264.5 36.5L245.5 36.5L245.5 55.5L245.5 74.5L264.5 74.5L264.5 55.5L283.5 55.5L283.5 74.5L302.5 74.5L302.5 55.5L302.5 36.5L283.5 36.5L283.5 17.5L302.5 17.5" fill="none" stroke="var(--sw-ink)" stroke-width="2" stroke-linecap="round" stroke-linejoin="round" /></g>
</svg>
