<svg xmlns="http://www.w3.org/2000/svg" viewBox="0 0 360 360" width="360" height="360">
<g><rect id="p0" x="0" y="0" width="50.81" height="77.78" fill="var(--sw-paper)" stroke="var(--sw-ink)" stroke-width="5" /><rect id="p1" x="50.81" y="0" width="50" height="77.78" fill="var(--sw-paper)" stroke="var(--sw-ink)" stroke-width="5" /><rect id="p2" x="0" y="77.78" width="100.81" height="72.66" fill="var(--sw-1)" stroke="var(--sw-ink)" stroke-width="5" /><rect id="p3" x="0" y="150.44" width="100.81" height="58.4" fill="var(--sw-3)" stroke="var(--sw-ink)" stroke-width="5" /><rect id="p4" x="0" y="208.84" width="50.81" height="70.68" fill="var(--sw-paper)" stroke="var(--sw-ink)" stroke-width="5" /><rect id="p5" x="50.81" y="208.84" width="50" height="70.68" fill="var(--sw-paper)" stroke="var(--sw-ink)" stroke-width="5" /><rect id="p6" x="0" y="279.53" width="50" height="80.47" fill="var(--sw-paper)" stroke="var(--sw-ink)" stroke-width="5" /><rect id="p7" x="50" y="279.53" width="50.81" height="80.47" fill="var(--sw-3)" stroke="var(--sw-ink)" stroke-width="5" /><rect id="p8" x="100.81" y="0" width="56.63" height="92.41" fill="var(--sw-paper)" stroke="var(--sw-ink)" stroke-width="5" /><rect id="p9" x="100.81" y="92.41" width="56.63" height="89.11" fill="var(--sw-paper)" stroke="var(--sw-ink)" stroke-width="5" /><rect id="p10" x="157.44" y="0" width="50" height="181.52" fill="var(--sw-paper)" stroke="var(--sw-ink)" stroke-width="5" /><rect id="p11" x="207.44" y="0" width="152.56" height="181.52" fill="var(--sw-paper)" stroke="var(--sw-ink)" stroke-width="5" /><rect id="p12" x="100.81" y="181.52" width="141.12" height="57.3" fill="var(--sw-5)" stroke="var(--sw-ink)" stroke-width="5" /><rect id="p13" x="100.81" y="238.82" width="141.12" height="121.18" fill="var(--sw-paper)" stroke="var(--sw-ink)" stroke-width="5" /><rect id="p14" x="241.93" y="181.52" width="118.07" height="50.46" fill="var(--sw-paper)" stroke="var(--sw-ink)" stroke-width="5" /><rect id="p15" x="241.93" y="231.99" width="118.07" height="128.01" fill="var(--sw-paper)" stroke="var(--sw-ink)" stroke-width="5" /></g>
</svg>
