<svg xmlns="http://www.w3.org/2000/svg" viewBox="0 0 400 280" width="400" height="280">
<g><line id="c0_0" x1="33.33" y1="0" x2="0" y2="35" stroke="var(--sw-ink)" stroke-width="4" stroke-linecap="round" /><line id="c0_1" x1="33.33" y1="0" x2="66.67" y2="35" stroke="var(--sw-ink)" stroke-width="4" stroke-linecap="round" /><line id="c0_2" x1="100" y1="0" x2="66.67" y2="35" stroke="var(--sw-ink)" stroke-width="4" stroke-linecap="round" /><line id="c0_3" x1="133.33" y1="0" x2="100" y2="35" stroke="var(--sw-ink)" stroke-width="4" stroke-linecap="round" /><line id="c0_4" x1="166.67" y1="0" x2="133.33" y2="35" stroke="var(--sw-ink)" stroke-width="4" stroke-linecap="round" /><line id="c0_5" x1="166.67" y1="0" x2="200" y2="35" stroke="var(--sw-ink)" stroke-width="4" stroke-linecap="round" /><line id="c0_6" x1="233.33" y1="0" x2="200" y2="35" stroke="var(--sw-ink)" stroke-width="4" stroke-linecap="round" /><line id="c0_7" x1="266.67" y1="0" x2="233.33" y2="35" stroke="var(--sw-ink)" stroke-width="4" stroke-linecap="round" /><line id="c0_8" x1="266.67" y1="0" x2="300" y2="35" stroke="var(--sw-ink)" stroke-width="4" stroke-linecap="round" /><line id="c0_9" x1="333.33" y1="0" x2="300" y2="35" stroke="var(--sw-ink)" stroke-width="4" stroke-linecap="round" /><line id="c0_10" x1="333.33" y1="0" x2="366.67" y2="35" stroke="var(--sw-ink)" stroke-width="4" stroke-linecap="round" /><line id="c0_11" x1="366.67" y1="0" x2="400" y2="35" stroke="var(--sw-ink)" stroke-width="4" stroke-linecap="round" /><line id="c1_0" x1="0" y1="35" x2="33.33" y2="70" stroke="var(--sw-ink)" stroke-width="4" stroke-linecap="round" /><line id="c1_1" x1="33.33" y1="35" x2="66.67" y2="70" stroke="var(--sw-ink)" stroke-width="4" stroke-linecap="round" /><line id="c1_2" x1="66.67" y1="35" x2="100" y2="70" stroke="var(--sw-ink)" stroke-width="4" stroke-linecap="round" /><line id="c1_3" x1="100" y1="35" x2="133.33" y2="70" stroke="var(--sw-ink)" stroke-width="4" stroke-linecap="round" /><line id="c1_4" x1="133.33" y1="35" x2="166.67" y2="70" stroke="var(--sw-ink)" stroke-width="4" stroke-linecap="round" /><line id="c1_5" x1="166.67" y1="35" x2="200" y2="70" stroke="var(--sw-ink)" stroke-width="4" stroke-linecap="round" /><line id="c1_6" x1="200" y1="35" x2="233.33" y2="70" stroke="var(--sw-ink)" stroke-width="4" stroke-linecap="round" /><line id="c1_7" x1="266.67" y1="35" x2="233.33" y2="70" stroke="var(--sw-ink)" stroke-width="4" stroke-linecap="round" /><line id="c1_8" x1="266.67" y1="35" x2="300" y2="70" stroke="var(--sw-ink)" stroke-width="4" stroke-linecap="round" /><line id="c1_9" x1="300" y1="35" x2="333.33" y2="70" stroke="var(--sw-ink)" stroke-width="4" stroke-linecap="round" /><line id="c1_10" x1="333.33" y1="35" x2="366.67" y2="70" stroke="var(--sw-ink)" stroke-width="4" stroke-linecap="round" /><line id="c1_11" x1="366.67" y1="35" x2="400" y2="70" stroke="var(--sw-ink)" stroke-width="4" stroke-linecap="round" /><line id="c2_0" x1="33.33" y1="70" x2="0" y2="105" stroke="var(--sw-ink)" stroke-width="4" stroke-linecap="round" /><line id="c2_1" x1="66.67" y1="70" x2="33.33" y2="105" stroke="var(--sw-ink)" stroke-width="4" stroke-linecap="round" /><line id="c2_2" x1="66.67" y1="70" x2="100" y2="105" stroke="var(--sw-ink)" stroke-width="4" stroke-linecap="round" /><line id="c2_3" x1="100" y1="70" x2="133.33" y2="105" stroke="var(--sw-ink)" stroke-width="4" stroke-linecap="round" /><line id="c2_4" x1="166.67" y1="70" x2="133.33" y2="105" stroke="var(--sw-ink)" stroke-width="4" stroke-linecap="round" /><line id="c2_5" x1="200" y1="70" x2="166.67" y2="105" stroke="var(--sw-ink)" stroke-width="4" stroke-linecap="round" /><line id="c2_6" x1="233.33" y1="70" x2="200" y2="105" stroke="var(--sw-ink)" stroke-width="4" stroke-linecap="round" /><line id="c2_7" x1="233.33" y1="70" x2="266.67" y2="105" stroke="var(--sw-ink)" stroke-width="4" stroke-linecap="round" /><line id="c2_8" x1="300" y1="70" x2="266.67" y2="105" stroke="var(--sw-ink)" stroke-width="4" stroke-linecap="round" /><line id="c2_9" x1="300" y1="70" x2="333.33" y2="105" stroke="var(--sw-ink)" stroke-width="4" stroke-linecap="round" /><line id="c2_10" x1="366.67" y1="70" x2="333.33" y2="105" stroke="var(--sw-ink)" stroke-width="4" stroke-linecap="round" /><line id="c2_11" x1="400" y1="70" x2="366.67" y2="105" stroke="var(--sw-ink)" stroke-width="4" stroke-linecap="round" /><line id="c3_0" x1="0" y1="105" x2="33.33" y2="140" stroke="var(--sw-ink)" stroke-width="4" stroke-linecap="round" /><line id="c3_1" x1="66.67" y1="105" x2="33.33" y2="140" stroke="var(--sw-ink)" stroke-width="4" stroke-linecap="round" /><line id="c3_2" x1="66.67" y1="105" x2="100" y2="140" stroke="var(--sw-ink)" stroke-width="4" stroke-linecap="round" /><line id="c3_3" x1="100" y1="105" x2="133.33" y2="140" stroke="var(--sw-ink)" stroke-width="4" stroke-linecap="round" /><line id="c3_4" x1="133.33" y1="105" x2="166.67" y2="140" stroke="var(--sw-ink)" stroke-width="4" stroke-linecap="round" /><line id="c3_5" x1="166.67" y1="105" x2="200" y2="140" stroke="var(--sw-ink)" stroke-width="4" stroke-linecap="round" /><line id="c3_6" x1="200" y1="105" x2="233.33" y2="140" stroke="var(--sw-ink)" stroke-width="4" stroke-linecap="round" /><line id="c3_7" x1="266.67" y1="105" x2="233.33" y2="140" stroke="var(--sw-ink)" stroke-width="4" stroke-linecap="round" /><line id="c3_8" x1="300" y1="105" x2="266.67" y2="140" stroke="var(--sw-ink)" stroke-width="4" stroke-linecap="round" /><line id="c3_9" x1="300" y1="105" x2="333.33" y2="140" stroke="var(--sw-ink)" stroke-width="4" stroke-linecap="round" /><line id="c3_10" x1="333.33" y1="105" x2="366.67" y2="140" stroke="var(--sw-ink)" stroke-width="4" stroke-linecap="round" /><line id="c3_11" x1="366.67" y1="105" x2="400" y2="140" stroke="var(--sw-ink)" stroke-width="4" stroke-linecap="round" /><line id="c4_0" x1="33.33" y1="140" x2="0" y2="175" stroke="var(--sw-ink)" stroke-width="4" stroke-linecap="round" /><line id="c4_1" x1="66.67" y1="140" x2="33.33" y2="175" stroke="var(--sw-ink)" stroke-width="4" stroke-linecap="round" /><line id="c4_2" x1="66.67" y1="140" x2="100" y2="175" stroke="var(--sw-ink)" stroke-width="4" stroke-linecap="round" /><line id="c4_3" x1="133.33" y1="140" x2="100" y2="175" stroke="var(--sw-ink)" stroke-width="4" stroke-linecap="round" /><line id="c4_4" x1="166.67" y1="140" x2="133.33" y2="175" stroke="var(--sw-ink)" stroke-width="4" stroke-linecap="round" /><line id="c4_5" x1="166.67" y1="140" x2="200" y2="175" stroke="var(--sw-ink)" stroke-width="4" stroke-linecap="round" /><line id="c4_6" x1="200" y1="140" x2="233.33" y2="175" stroke="var(--sw-ink)" stroke-width="4" stroke-linecap="round" /><line id="c4_7" x1="266.67" y1="140" x2="233.33" y2="175" stroke="var(--sw-ink)" stroke-width="4" stroke-linecap="round" /><line id="c4_8" x1="300" y1="140" x2="266.67" y2="175" stroke="var(--sw-ink)" stroke-width="4" stroke-linecap="round" /><line id="c4_9" x1="333.33" y1="140" x2="300" y2="175" stroke="var(--sw-ink)" stroke-width="4" stroke-linecap="round" /><line id="c4_10" x1="366.67" y1="140" x2="333.33" y2="175" stroke="var(--sw-ink)" stroke-width="4" stroke-linecap="round" /><line id="c4_11" x1="400" y1="140" x2="366.67" y2="175" stroke="var(--sw-ink)" stroke-width="4" stroke-linecap="round" /><line id="c5_0" x1="33.33" y1="175" x2="0" y2="210" stroke="var(--sw-ink)" stroke-width="4" stroke-linecap="round" /><line id="c5_1" x1="66.67" y1="175" x2="33.33" y2="210" stroke="var(--sw-ink)" stroke-width="4" stroke-linecap="round" /><line id="c5_2" x1="66.67" y1="175" x2="100" y2="210" stroke="var(--sw-ink)" stroke-width="4" stroke-linecap="round" /><line id="c5_3" x1="100" y1="175" x2="133.33" y2="210" stroke="var(--sw-ink)" stroke-width="4" stroke-linecap="round" /><line id="c5_4" x1="166.67" y1="175" x2="133.33" y2="210" stroke="var(--sw-ink)" stroke-width="4" stroke-linecap="round" /><line id="c5_5" x1="166.67" y1="175" x2="200" y2="210" stroke="var(--sw-ink)" stroke-width="4" stroke-linecap="round" /><line id="c5_6" x1="233.33" y1="175" x2="200" y2="210" stroke="var(--sw-ink)" stroke-width="4" stroke-linecap="round" /><line id="c5_7" x1="266.67" y1="175" x2="233.33" y2="210" stroke="var(--sw-ink)" stroke-width="4" stroke-linecap="round" /><line id="c5_8" x1="300" y1="175" x2="266.67" y2="210" stroke="var(--sw-ink)" stroke-width="4" stroke-linecap="round" /><line id="c5_9" x1="333.33" y1="175" x2="300" y2="210" stroke="var(--sw-ink)" stroke-width="4" stroke-linecap="round" /><line id="c5_10" x1="333.33" y1="175" x2="366.67" y2="210" stroke="var(--sw-ink)" stroke-width="4" stroke-linecap="round" /><line id="c5_11" x1="400" y1="175" x2="366.67" y2="210" stroke="var(--sw-ink)" stroke-width="4" stroke-linecap="round" /><line id="c6_0" x1="33.33" y1="210" x2="0" y2="245" stroke="var(--sw-ink)" stroke-width="4" stroke-linecap="round" /><line id="c6_1" x1="33.33" y1="210" x2="66.67" y2="245" stroke="var(--sw-ink)" stroke-width="4" stroke-linecap="round" /><line id="c6_2" x1="100" y1="210" x2="66.67" y2="245" stroke="var(--sw-ink)" stroke-width="4" stroke-linecap="round" /><line id="c6_3" x1="100" y1="210" x2="133.33" y2="245" stroke="var(--sw-ink)" stroke-width="4" stroke-linecap="round" /><line id="c6_4" x1="133.33" y1="210" x2="166.67" y2="245" stroke="var(--sw-ink)" stroke-width="4" stroke-linecap="round" /><line id="c6_5" x1="166.67" y1="210" x2="200" y2="245" stroke="var(--sw-ink)" stroke-width="4" stroke-linecap="round" /><line id="c6_6" x1="200" y1="210" x2="233.33" y2="245" stroke="var(--sw-ink)" stroke-width="4" stroke-linecap="round" /><line id="c6_7" x1="233.33" y1="210" x2="266.67" y2="245" stroke="var(--sw-ink)" stroke-width="4" stroke-linecap="round" /><line id="c6_8" x1="300" y1="210" x2="266.67" y2="245" stroke="var(--sw-ink)" stroke-width="4" stroke-linecap="round" /><line id="c6_9" x1="333.33" y1="210" x2="300" y2="245" stroke="var(--sw-ink)" stroke-width="4" stroke-linecap="round" /><line id="c6_10" x1="366.67" y1="210" x2="333.33" y2="245" stroke="var(--sw-ink)" stroke-width="4" stroke-linecap="round" /><line id="c6_11" x1="366.67" y1="210" x2="400" y2="245" stroke="var(--sw-ink)" stroke-width="4" stroke-linecap="round" /><line id="c7_0" x1="33.33" y1="245" x2="0" y2="280" stroke="var(--sw-ink)" stroke-width="4" stroke-linecap="round" /><line id="c7_1" x1="66.67" y1="245" x2="33.33" y2="280" stroke="var(--sw-ink)" stroke-width="4" stroke-linecap="round" /><line id="c7_2" x1="66.67" y1="245" x2="100" y2="280" stroke="var(--sw-ink)" stroke-width="4" stroke-linecap="round" /><line id="c7_3" x1="100" y1="245" x2="133.33" y2="280" stroke="var(--sw-ink)" stroke-width="4" stroke-linecap="round" /><line id="c7_4" x1="133.33" y1="245" x2="166.67" y2="280" stroke="var(--sw-ink)" stroke-width="4" stroke-linecap="round" /><line id="c7_5" x1="200" y1="245" x2="166.67" y2="280" stroke="var(--sw-ink)" stroke-width="4" stroke-linecap="round" /><line id="c7_6" x1="200" y1="245" x2="233.33" y2="280" stroke="var(--sw-ink)" stroke-width="4" stroke-linecap="round" /><line id="c7_7" x1="233.33" y1="245" x2="266.67" y2="280" stroke="var(--sw-ink)" stroke-width="4" stroke-linecap="round" /><line id="c7_8" x1="300" y1="245" x2="266.67" y2="280" stroke="var(--sw-ink)" stroke-width="4" stroke-linecap="round" /><line id="c7_9" x1="333.33" y1="245" x2="300" y2="280" stroke="var(--sw-ink)" stroke-width="4" stroke-linecap="round" /><line id="c7_10" x1="333.33" y1="245" x2="366.67" y2="280" stroke="var(--sw-ink)" stroke-width="4" stroke-linecap="round" /><line id="c7_11" x1="366.67" y1="245" x2="400" y2="280" stroke="var(--sw-ink)" stroke-width="4" stroke-linecap="round" /></g>
</svg>
